Coordinates
version=1
nRows=17
nColumns=24
inDegrees=yes

Units are S.I. units (second, meters, Newtons, ...)
Angles are in degrees.

endheader
time	pelvis_tilt	pelvis_list	pelvis_rotation	pelvis_tx	pelvis_ty	pelvis_tz	hip_flexion_r	hip_adduction_r	hip_rotation_r	knee_angle_r	ankle_angle_r	subtalar_angle_r	mtp_angle_r	hip_flexion_l	hip_adduction_l	hip_rotation_l	knee_angle_l	ankle_angle_l	subtalar_angle_l	mtp_angle_l	lumbar_extension	lumbar_bending	lumbar_rotation
      1.71650000	     -1.30601809	      1.93780692	     -5.26614121	      1.31604633	      0.99875876	      0.33409940	     20.39851934	     -6.55448301	     -2.87574729	    -77.57569623	     -2.83447036	     -0.72416847	      4.62930176	     19.12244694	      2.21925312	     -6.99791661	    -21.95129251	      4.29342072	    -11.95204652	     -9.63043041	     -8.77072705	     -5.65698238	      4.23351142
      1.72066667	     -1.19902058	      1.76754642	     -4.91273848	      1.32080893	      1.00026666	      0.33308520	     20.94880011	     -6.41132465	     -3.26557286	    -77.50981899	     -2.46109028	     -0.72245220	      4.58544901	     18.52031129	      2.23505318	     -6.66158503	    -21.56547677	      4.31754873	    -11.85706429	     -9.61134848	     -8.97256244	     -5.36798500	      3.88799985
      1.72483333	     -1.08674839	      1.61028631	     -4.56052518	      1.32558434	      1.00175513	      0.33206891	     21.48396499	     -6.29468057	     -3.65824251	    -77.40330149	     -2.07557943	     -0.68888985	      4.53953179	     17.90273702	      2.25905069	     -6.33192752	    -21.16620742	      4.37737314	    -11.74018691	     -9.58944056	     -9.17515445	     -5.09142543	      3.57285135
      1.72900000	     -0.96800972	      1.45279778	     -4.22701544	      1.33032928	      1.00322246	      0.33111580	     22.00673674	     -6.17575154	     -4.03712079	    -77.25493070	     -1.68651223	     -0.63678986	      4.50463044	     17.28114155	      2.26576677	     -6.02718705	    -20.77206512	      4.48159209	    -11.59082165	     -9.56893598	     -9.38066992	     -4.82628895	      3.32329308
      1.73316667	     -0.82775807	      1.28869715	     -3.87522986	      1.33506281	      1.00471765	      0.33010063	     22.48882873	     -6.07100910	     -4.44931098	    -77.05463386	     -1.31880779	     -0.65141403	      4.45459588	     16.63060645	      2.27311631	     -5.69297637	    -20.35366569	      4.51739452	    -11.51030513	     -9.54386790	     -9.60653468	     -4.52895412	      2.97540715
      1.73733333	     -0.69422823	      1.11265982	     -3.53688727	      1.33975982	      1.00618091	      0.32915066	     22.96770625	     -5.94578555	     -4.85029046	    -76.80556839	     -0.97536352	     -0.67419543	      4.40131341	     15.99001067	      2.25176493	     -5.36942006	    -19.94256316	      4.56990004	    -11.42232952	     -9.51796447	     -9.83164164	     -4.23327932	      2.70405907
      1.74150000	     -0.54613050	      0.94897637	     -3.19673534	      1.34442376	      1.00764057	      0.32817713	     23.42108464	     -5.85032290	     -5.26137474	    -76.51307366	     -0.64476436	     -0.69876423	      4.33963085	     15.32822660	      2.24419273	     -5.02723708	    -19.51222897	      4.59971043	    -11.36754544	     -9.49058732	    -10.07022653	     -3.94626672	      2.41335941
      1.74566667	     -0.50387429	      0.84553669	     -2.99615704	      1.34908085	      1.00884527	      0.32758470	     24.03637885	     -5.73776763	     -5.51755472	    -76.23490175	     -0.28278695	     -0.79957120	      4.31671155	     14.77334220	      2.22971972	     -4.88441411	    -19.07209846	      4.59628998	    -11.27356260	     -9.48046634	    -10.16278893	     -3.74986720	      2.32355453
      1.74983333	     -0.26422492	      0.63660796	     -2.60669888	      1.35375789	      1.01046155	      0.32648975	     24.32677235	     -5.64066060	     -6.00352719	    -75.80706776	     -0.01144964	     -0.79093101	      4.23778342	     13.99654973	      2.18953891	     -4.45678995	    -18.60289009	      4.65522465	    -11.25680595	     -9.44879685	    -10.50910528	     -3.39805222	      1.94855356
      1.75400000	     -0.12810246	      0.47069139	     -2.30528001	      1.35839384	      1.01181886	      0.32564023	     24.76024054	     -5.53615585	     -6.39001841	    -75.38279646	      0.29127625	     -0.86871434	      4.15044421	     13.34193179	      2.14607603	     -4.15115152	    -18.15645326	      4.66698872	    -11.24261734	     -9.41808154	    -10.72004212	     -3.10380414	      1.70591674
      1.75816667	     -0.10049536	      0.38652420	     -2.13221130	      1.36298276	      1.01287360	      0.32514705	     25.36667975	     -5.44343428	     -6.62047537	    -74.99312980	      0.62483854	     -0.97375504	      4.12005338	     12.80537430	      2.13111985	     -4.02357666	    -17.70696219	      4.65611151	    -11.17413762	     -9.40730111	    -10.79767778	     -2.93443992	      1.62349801
      1.76233333	      0.11064995	      0.17290743	     -1.79042697	      1.36761146	      1.01433737	      0.32418705	     25.65724138	     -5.33223668	     -7.07944433	    -74.43526251	      0.84430259	     -1.01073066	      4.01667780	     12.06945531	      2.04601581	     -3.64485949	    -17.25200909	      4.71894568	    -11.18584231	     -9.37320303	    -11.09577975	     -2.57752332	      1.30818539
      1.76650000	      0.13117837	      0.09663361	     -1.63197195	      1.37215789	      1.01529058	      0.32375889	     26.24789639	     -5.24539740	     -7.29442802	    -73.97000506	      1.17962908	     -1.11694383	      3.98283909	     11.54157925	      2.02853162	     -3.51893282	    -16.80020697	      4.70676973	    -11.13554753	     -9.36306786	    -11.16483666	     -2.41932282	      1.23960512
      1.77066667	      0.32954368	     -0.10598717	     -1.30304186	      1.37674700	      1.01665021	      0.32284886	     26.52693111	     -5.14771188	     -7.74234779	    -73.33037594	      1.38726487	     -1.15062872	      3.85922753	     10.82621570	      1.93770924	     -3.15166782	    -16.34842581	      4.75498272	    -11.17999015	     -9.32812299	    -11.44383470	     -2.07522795	      0.96506471
      1.77483333	      0.44349446	     -0.21844880	     -1.10976691	      1.38132427	      1.01775668	      0.32229848	     26.94394694	     -5.06353112	     -8.02132685	    -72.72114577	      1.64281416	     -1.22713176	      3.72605964	     10.18308164	      1.89744491	     -2.93406163	    -15.85997898	      4.73731071	    -11.23104875	     -9.29339504	    -11.62383200	     -1.86617855	      0.79946422
      1.77900000	      0.42282534	     -0.29113870	     -0.96562951	      1.38584048	      1.01850765	      0.32194352	     27.53710285	     -4.98110236	     -8.22667722	    -72.13145336	      1.92873595	     -1.32356175	      3.68727462	      9.72055002	      1.86635750	     -2.82138098	    -15.44529577	      4.75693617	    -11.17639565	     -9.28178745	    -11.64447161	     -1.71906746	      0.75916603
      1.78316667	      0.56601982	     -0.45661419	     -0.70043360	      1.39040573	      1.01962512	      0.32122814	     27.85329464	     -4.89340513	     -8.60565453	    -71.38909692	      2.09228236	     -1.39260640	      3.54150417	      9.06405414	      1.77932967	     -2.51528566	    -14.98610307	      4.78720434	    -11.24250857	     -9.24172525	    -11.85154578	     -1.42296016	      0.55605261
